<svg xmlns="http://www.w3.org/2000/svg" viewBox="0 0 1024 1024" role="img" aria-label="Asylia">
  <title>Asylia</title>
  <svg x="205" y="205" width="614" height="614" viewBox="39.3 83.1 896.76 800.89" preserveAspectRatio="xMidYMid meet">
    <path fill="#af5c13" d="M386.498291,806.512207 C354.126373,833.099731 320.304688,856.579102 280.552155,870.197632 C252.628830,879.763672 223.985962,884.637451 194.547516,881.082092 C142.317337,874.774048 100.222450,850.710327 70.233543,807.021545 C46.323940,772.189331 36.583469,733.139832 39.948990,691.335388 C43.997368,641.048950 65.364830,598.590881 102.434502,564.397705 C137.666046,531.900085 179.679825,514.009766 227.174561,509.031097 C270.589783,504.480103 312.055939,512.499878 351.996582,529.506592 C391.973114,546.528625 426.663361,571.827881 460.307678,598.741028 C470.974823,607.274048 481.568878,615.913452 491.880157,624.868286 C495.715088,628.198792 498.220337,628.487915 502.370789,625.150879 C529.252991,603.537170 556.593689,582.504089 584.232544,561.864258 C598.651123,551.096863 613.046631,540.292114 627.664978,529.800110 C648.541199,514.816772 673.976746,524.599976 678.692627,549.722900 C681.075195,562.415710 675.949402,572.853088 665.653870,580.670410 C636.592712,602.736450 607.492554,624.751648 578.498657,646.905762 C567.808777,655.073914 557.372925,663.574524 546.357361,672.290588 C554.998047,679.921570 563.122864,687.237854 571.398132,694.380005 C602.557922,721.273254 633.887451,747.962280 666.906860,772.585754 C689.296875,789.282532 712.448792,804.704590 739.437012,813.061768 C770.243042,822.601257 800.884827,823.960815 830.037170,807.682434 C854.087280,794.253174 868.001221,773.499573 871.844849,745.999023 C874.926208,723.951965 870.037292,703.475952 859.451172,684.439331 C836.051514,642.360413 812.158752,600.555298 788.396301,558.678711 C759.865173,508.398254 731.343933,458.111816 702.662109,407.917358 C677.948181,364.666931 653.048035,321.522797 628.167969,278.367493 C609.362000,245.748016 590.269226,213.292435 571.651367,180.566345 C553.603210,148.841766 519.590210,136.507721 486.551178,150.512268 C471.054169,157.081085 460.429810,168.917923 452.050568,183.296509 C412.540985,251.094162 372.841370,318.781067 333.191620,386.497009 C319.301849,410.218628 305.262726,433.853577 291.510651,457.654541 C287.948212,463.820099 283.207214,466.698914 276.089355,466.507385 C266.263519,466.243042 256.425415,466.465729 246.592957,466.410675 C231.766190,466.327637 224.389313,454.338806 231.736542,441.411041 C247.788483,413.166870 264.212433,385.133514 280.564514,357.060699 C321.318665,287.095123 361.913147,217.035385 402.971771,147.248825 C429.391693,102.343422 469.470703,80.791992 521.204773,83.297676 C566.198914,85.476936 600.858643,106.929115 623.522888,146.073425 C678.117676,240.366196 732.435730,334.819855 786.628479,429.344482 C820.435791,488.312164 853.860352,547.499634 887.353821,606.646729 C898.351257,626.067505 909.949890,645.170227 919.672241,665.285645 C930.106812,686.874817 935.951172,709.712402 936.057678,733.718018 C936.370483,804.213928 890.227478,862.363892 820.636780,879.217590 C786.013733,887.602661 751.908813,884.452942 718.274841,873.529602 C685.708435,862.953003 656.769348,845.713867 629.484192,825.422791 C587.852417,794.462708 549.152283,759.979065 510.072296,725.953308 C506.679199,722.999084 503.241333,720.094666 499.901184,717.081787 C497.846741,715.228760 496.124695,715.030579 493.833923,716.956482 C464.759857,741.399719 435.630554,765.777283 406.488434,790.139404 C399.971832,795.587158 393.351349,800.910583 386.498291,806.512207 M315.194061,779.675964 C318.146057,777.503906 321.135895,775.381226 324.043945,773.151917 C345.866394,756.422485 366.920868,738.744873 388.092194,721.211914 C405.800720,706.546692 423.514404,691.887634 441.181976,677.173157 C446.769409,672.519592 447.072815,670.277588 442.426331,666.478577 C414.817078,643.904602 387.148224,621.404175 356.305603,603.227661 C327.400482,586.192932 296.753143,573.940430 263.013794,571.505249 C226.159943,568.845215 191.542999,576.618835 161.178726,598.305481 C125.074356,624.091797 104.177208,658.843872 103.134018,704.030579 C102.442207,733.996399 112.126228,760.605591 132.486176,782.509888 C162.701172,815.016602 200.724411,822.555603 242.821869,814.035950 C269.450806,808.646912 292.553345,795.373474 315.194061,779.675964 z"/>
  </svg>
</svg>
